<svg width="480" height="320" viewBox="0 0 480 320" fill="none" xmlns="http://www.w3.org/2000/svg">
  <rect width="480" height="320" rx="18" fill="#F5F7FA"/>
  <rect x="28" y="24" width="424" height="272" rx="16" fill="#FFFFFF" stroke="#D9E3EE"/>
  <text x="50" y="58" fill="#0C1424" font-family="Inter, Arial, sans-serif" font-size="22" font-weight="700">Template Builder</text>
  <rect x="332" y="40" width="88" height="24" rx="12" fill="#EEF5FB"/>
  <text x="350" y="56" fill="#1D6FE8" font-family="Inter, Arial, sans-serif" font-size="11" font-weight="700">Board pack</text>
  <line x1="28" y1="78" x2="452" y2="78" stroke="#D9E3EE"/>

  <rect x="52" y="104" width="148" height="154" rx="12" fill="#F8FAFC" stroke="#D9E3EE"/>
  <text x="72" y="132" fill="#24324A" font-family="Inter, Arial, sans-serif" font-size="15" font-weight="700">Blocks</text>
  <rect x="72" y="150" width="106" height="24" rx="12" fill="#FFFFFF" stroke="#C7D6E6"/>
  <text x="86" y="166" fill="#24324A" font-family="Inter, Arial, sans-serif" font-size="11">Commentary</text>
  <rect x="72" y="184" width="102" height="24" rx="12" fill="#FFFFFF" stroke="#C7D6E6"/>
  <text x="86" y="200" fill="#24324A" font-family="Inter, Arial, sans-serif" font-size="11">KPI table</text>
  <rect x="72" y="218" width="112" height="24" rx="12" fill="#1D6FE8"/>
  <text x="86" y="234" fill="#FFFFFF" font-family="Inter, Arial, sans-serif" font-size="11" font-weight="700">Approval</text>

  <rect x="230" y="104" width="198" height="154" rx="12" fill="#FFFFFF" stroke="#D9E3EE"/>
  <text x="252" y="134" fill="#0C1424" font-family="Inter, Arial, sans-serif" font-size="16" font-weight="700">Investor update</text>
  <rect x="252" y="156" width="136" height="28" rx="10" fill="#F8FAFC" stroke="#D9E3EE"/>
  <text x="268" y="174" fill="#24324A" font-family="Inter, Arial, sans-serif" font-size="11">1. Summary</text>
  <rect x="252" y="196" width="136" height="28" rx="10" fill="#F8FAFC" stroke="#D9E3EE"/>
  <text x="268" y="214" fill="#24324A" font-family="Inter, Arial, sans-serif" font-size="11">2. Variance analysis</text>
  <rect x="252" y="236" width="92" height="10" rx="5" fill="#6EB6FF"/>
</svg>
