<svg width="480" height="320" viewBox="0 0 480 320" fill="none" xmlns="http://www.w3.org/2000/svg">
  <rect width="480" height="320" rx="18" fill="#F5F7FA"/>
  <rect x="28" y="24" width="424" height="272" rx="16" fill="#FFFFFF" stroke="#D9E3EE"/>
  <text x="50" y="58" fill="#0C1424" font-family="Inter, Arial, sans-serif" font-size="22" font-weight="700">Audit Trail</text>
  <line x1="28" y1="78" x2="452" y2="78" stroke="#D9E3EE"/>

  <rect x="52" y="102" width="232" height="154" rx="12" fill="#FFFFFF" stroke="#D9E3EE"/>
  <text x="72" y="132" fill="#0C1424" font-family="Inter, Arial, sans-serif" font-size="16" font-weight="700">VAT reconciliation</text>
  <rect x="72" y="154" width="152" height="10" rx="5" fill="#EEF5FB"/>
  <rect x="72" y="176" width="116" height="10" rx="5" fill="#EEF5FB"/>
  <rect x="72" y="208" width="128" height="26" rx="13" fill="#1D6FE8"/>
  <text x="88" y="225" fill="#FFFFFF" font-family="Inter, Arial, sans-serif" font-size="11" font-weight="700">Approval required</text>

  <rect x="310" y="102" width="118" height="154" rx="12" fill="#0C1424"/>
  <text x="330" y="132" fill="#FFFFFF" font-family="Inter, Arial, sans-serif" font-size="15" font-weight="700">Sources</text>
  <rect x="330" y="152" width="72" height="24" rx="12" fill="#172338"/>
  <text x="342" y="168" fill="#DDEBFA" font-family="Inter, Arial, sans-serif" font-size="10">Source file</text>
  <rect x="330" y="190" width="78" height="36" rx="10" fill="#172338"/>
  <text x="342" y="211" fill="#FFFFFF" font-family="Inter, Arial, sans-serif" font-size="11" font-weight="700">Ledger Q4</text>
  <path d="M284 178H310" stroke="#9CCBFF" stroke-width="3"/>
  <path d="M302 168L312 178L302 188" stroke="#9CCBFF" stroke-width="3" stroke-linecap="round" stroke-linejoin="round"/>
</svg>
