<svg xmlns="http://www.w3.org/2000/svg" viewBox="0 0 162 33" role="img">
  <defs>
    <linearGradient id="selona-logo-official-ring" x1="0" y1="-2.78" x2="0" y2="1.36">
      <stop offset="0" stop-color="rgb(14, 18, 41)"/>
      <stop offset="1" stop-color="rgb(255, 255, 255)"/>
    </linearGradient>
    <linearGradient id="selona-logo-official-mark-bg" x1="0" y1="0" x2="2.13" y2="0">
      <stop offset="0" stop-color="rgb(44, 79, 125)"/>
      <stop offset="1" stop-color="rgb(50, 61, 104)"/>
    </linearGradient>
  </defs>
  <circle cx="12.375" cy="20.575" r="12.375" fill="url(#selona-logo-official-ring)"/>
  <circle cx="12.375" cy="20.575" r="9.281" fill="url(#selona-logo-official-mark-bg)"/>
  <path d="M 8.503 0.001 C 10.763 0.001 12.911 0.943 14.508 2.639 C 16.107 4.323 17.005 6.615 17 9.004 C 17.004 11.392 16.106 13.682 14.508 15.364 C 12.918 17.056 10.756 18.005 8.503 18 C 6.248 18.006 4.083 17.057 2.491 15.364 C 0.893 13.682 -0.003 11.392 0 9.004 C 0 6.606 0.888 4.331 2.49 2.639 C 4.082 0.945 6.248 -0.006 8.504 0 Z M 7.782 14.72 C 8.389 14.887 8.997 15.06 9.604 15.22 C 10.183 15.381 10.769 15.524 11.353 15.674 L 11.421 15.6 C 10.88 14.436 10.346 13.268 9.812 12.101 C 9.58 12.121 9.347 12.07 9.142 11.952 C 8.62 12.673 8.097 13.392 7.574 14.107 C 7.707 14.255 7.784 14.45 7.788 14.655 C 7.788 14.678 7.788 14.696 7.782 14.718 Z M 14.126 2.669 C 13.711 2.254 13.257 1.887 12.77 1.574 C 12.428 1.728 12.09 1.878 11.747 2.038 C 11.778 2.205 11.709 2.376 11.573 2.467 L 11.69 2.811 C 11.888 2.817 12.073 2.919 12.174 3.098 L 14.125 2.669 Z M 12.467 1.388 C 11.254 0.676 9.89 0.303 8.503 0.305 L 8.485 0.305 C 8.841 0.501 9.188 0.692 9.537 0.888 C 10.021 1.162 10.498 1.442 10.977 1.723 C 10.998 1.705 11.021 1.689 11.044 1.674 C 11.117 1.635 11.198 1.617 11.28 1.62 C 11.4 1.627 11.522 1.68 11.611 1.77 C 11.893 1.646 12.18 1.514 12.467 1.388 Z M 6.945 0.466 C 6.514 0.55 6.09 0.673 5.679 0.835 C 6.422 1.662 7.147 2.491 7.878 3.33 C 7.901 3.317 7.924 3.312 7.945 3.301 L 7.416 0.61 C 7.249 0.612 7.085 0.562 6.945 0.466 Z M 5.392 0.954 C 5.354 0.972 5.308 0.99 5.263 1.008 C 5.228 1.039 5.19 1.067 5.15 1.091 C 4.785 1.615 4.413 2.133 4.054 2.657 C 3.688 3.194 3.329 3.736 2.97 4.276 C 3.043 4.365 3.098 4.469 3.132 4.581 C 3.835 4.462 4.538 4.342 5.247 4.229 C 6 4.11 6.753 4.002 7.507 3.894 C 7.524 3.76 7.574 3.633 7.653 3.526 C 6.905 2.664 6.152 1.806 5.392 0.954 Z M 2.739 4.122 C 3.082 3.61 3.42 3.092 3.768 2.586 C 4.054 2.162 4.352 1.74 4.65 1.324 C 3.931 1.729 3.271 2.245 2.693 2.854 C 2.376 3.188 2.086 3.551 1.827 3.938 L 2.056 4.241 C 2.247 4.075 2.507 4.03 2.737 4.122 Z M 1.326 4.765 L 1.727 4.8 C 1.751 4.68 1.794 4.565 1.856 4.462 C 1.792 4.371 1.727 4.282 1.659 4.194 C 1.54 4.379 1.429 4.569 1.327 4.765 Z M 1.181 5.062 C 0.769 5.915 0.495 6.835 0.371 7.784 C 0.832 8.504 1.293 9.218 1.765 9.928 C 1.888 8.543 2.04 7.161 2.222 5.784 C 1.942 5.691 1.754 5.415 1.759 5.105 C 1.569 5.086 1.372 5.075 1.181 5.062 Z M 1.625 10.23 C 1.182 9.572 0.747 8.907 0.321 8.235 C 0.297 8.493 0.287 8.748 0.287 9.004 C 0.287 9.504 0.332 9.998 0.411 10.493 C 0.815 10.404 1.22 10.32 1.625 10.23 Z M 0.461 10.791 C 0.581 11.367 0.748 11.934 0.973 12.476 L 1.04 12.273 C 0.9 12.12 0.819 11.916 0.815 11.702 C 0.798 11.262 1.102 10.874 1.513 10.909 C 1.558 10.789 1.601 10.668 1.642 10.546 C 1.247 10.63 0.855 10.707 0.461 10.791 Z M 1.136 12.857 C 1.536 13.705 2.062 14.479 2.694 15.149 C 3.409 15.903 4.247 16.512 5.168 16.947 C 5.144 16.935 5.128 16.916 5.106 16.9 C 4.848 16.643 4.769 16.244 4.983 15.94 C 4.46 15.369 3.93 14.792 3.414 14.208 C 2.903 13.618 2.396 13.023 1.895 12.428 C 1.706 12.553 1.469 12.564 1.271 12.457 C 1.226 12.59 1.181 12.724 1.136 12.857 Z M 5.567 17.126 C 6.489 17.501 7.484 17.697 8.503 17.697 C 10.083 17.697 11.617 17.222 12.939 16.316 L 12.096 16.149 C 12.006 16.281 11.863 16.363 11.708 16.369 C 11.555 16.38 11.408 16.306 11.319 16.173 C 11.307 16.155 11.295 16.138 11.292 16.114 C 10.471 16.198 9.65 16.287 8.823 16.358 C 8.009 16.424 7.192 16.472 6.376 16.519 C 6.366 16.648 6.319 16.771 6.241 16.871 C 6.073 17.073 5.818 17.169 5.567 17.124 Z M 13.266 16.085 C 13.565 15.858 13.85 15.607 14.12 15.34 L 13.692 14.16 C 13.557 14.196 13.416 14.185 13.287 14.131 C 12.899 14.637 12.512 15.142 12.118 15.644 C 12.16 15.706 12.182 15.782 12.18 15.859 L 13.266 16.084 Z M 13.956 14.029 C 14.081 14.386 14.21 14.749 14.339 15.113 C 14.8 14.618 15.206 14.073 15.542 13.476 C 15.103 13.518 14.671 13.547 14.237 13.578 C 14.194 13.757 14.095 13.916 13.956 14.029 Z M 15.711 13.16 C 15.919 12.755 16.099 12.333 16.246 11.899 L 15.273 11.094 C 15.185 11.17 15.07 11.203 14.958 11.183 C 14.659 11.767 14.362 12.338 14.058 12.917 C 14.158 13.011 14.224 13.139 14.243 13.28 C 14.734 13.244 15.223 13.202 15.711 13.16 Z M 16.342 11.589 C 16.577 10.778 16.701 9.94 16.713 9.093 L 16.565 8.617 C 16.509 8.617 16.465 8.617 16.409 8.598 C 16.065 9.207 15.723 9.809 15.373 10.416 C 15.456 10.54 15.478 10.7 15.431 10.844 C 15.734 11.088 16.038 11.338 16.34 11.589 Z M 16.594 7.521 C 16.594 7.521 16.593 7.521 16.593 7.521 C 16.593 7.521 16.593 7.521 16.593 7.521 Z M 15.881 5.186 L 15.267 5.283 C 15.276 5.476 15.2 5.663 15.061 5.788 C 14.923 5.914 14.737 5.965 14.558 5.926 C 14.447 6.272 14.339 6.616 14.221 6.963 C 14.312 7.052 14.344 7.124 14.362 7.255 C 14.958 7.432 15.542 7.605 16.133 7.79 C 16.222 7.605 16.403 7.486 16.593 7.521 C 16.46 6.711 16.221 5.925 15.881 5.186 Z M 15.74 4.896 C 15.569 4.562 15.379 4.24 15.171 3.931 L 14.958 4.658 C 15.066 4.734 15.15 4.849 15.2 4.973 L 15.738 4.897 Z M 14.964 3.639 C 14.779 3.39 14.582 3.152 14.373 2.925 C 13.665 3.073 12.966 3.229 12.259 3.389 C 12.265 3.431 12.263 3.473 12.253 3.514 C 12.887 3.913 13.512 4.312 14.142 4.718 C 14.254 4.573 14.427 4.497 14.604 4.515 C 14.637 4.515 14.665 4.52 14.699 4.528 L 14.963 3.639 Z M 1.783 10.999 C 1.834 11.028 1.879 11.064 1.923 11.101 C 2.216 10.815 2.503 10.53 2.8 10.243 C 2.581 9.838 2.716 9.266 3.12 9.063 C 2.997 8.487 2.874 7.902 2.755 7.319 C 2.66 6.868 2.576 6.408 2.486 5.949 C 2.412 6.503 2.345 7.057 2.278 7.611 C 2.176 8.504 2.097 9.403 2.014 10.303 L 2.03 10.325 L 2.007 10.38 L 1.995 10.475 L 1.968 10.481 L 1.783 10.998 Z M 3.402 8.987 C 3.569 8.978 3.733 9.031 3.868 9.135 C 4.65 8.285 5.427 7.437 6.213 6.599 C 6.112 6.435 6.068 6.239 6.09 6.045 C 5.106 5.766 4.122 5.492 3.143 5.217 C 3.074 5.436 2.927 5.618 2.733 5.724 C 2.828 6.236 2.929 6.741 3.032 7.247 C 3.149 7.824 3.278 8.409 3.402 8.987 Z M 3.183 4.878 L 3.183 4.913 C 4.183 5.187 5.179 5.462 6.175 5.747 C 6.552 4.96 7.703 5.212 7.697 6.111 C 7.692 6.428 7.525 6.716 7.26 6.864 C 6.996 7.011 6.676 6.993 6.428 6.818 C 5.639 7.659 4.855 8.505 4.077 9.356 C 4.189 9.546 4.234 9.778 4.195 10.004 C 4.91 10.32 5.617 10.63 6.332 10.94 C 6.381 10.875 6.445 10.826 6.517 10.796 C 6.449 9.983 6.383 9.169 6.32 8.355 C 5.955 8.272 5.815 7.772 6.09 7.479 C 6.264 7.289 6.578 7.266 6.764 7.456 C 7.81 6.808 8.862 6.165 9.914 5.528 C 9.888 5.401 9.894 5.27 9.931 5.147 C 9.536 4.913 9.143 4.681 8.756 4.443 C 8.389 4.854 7.732 4.734 7.541 4.199 C 6.787 4.312 6.033 4.413 5.28 4.533 C 4.577 4.646 3.879 4.765 3.183 4.878 Z M 6.175 15.934 C 6.252 16.016 6.309 16.116 6.343 16.226 C 7.158 16.179 7.98 16.132 8.794 16.066 C 9.493 16.006 10.189 15.934 10.88 15.863 C 10.425 15.751 9.97 15.631 9.516 15.513 C 8.912 15.352 8.305 15.179 7.703 15.012 C 7.507 15.411 7.022 15.529 6.647 15.334 C 6.49 15.537 6.332 15.732 6.174 15.934 Z M 8.897 9.987 C 8.17 9.416 7.439 8.845 6.714 8.266 C 6.685 8.292 6.653 8.312 6.618 8.326 C 6.681 9.14 6.748 9.957 6.815 10.767 C 6.967 10.808 7.093 10.92 7.158 11.072 L 8.547 10.94 C 8.532 10.584 8.659 10.239 8.897 9.988 Z M 7.334 13.928 C 7.86 13.208 8.384 12.488 8.902 11.767 C 8.765 11.621 8.663 11.444 8.604 11.249 C 8.131 11.296 7.658 11.344 7.186 11.386 C 7.113 11.78 6.641 11.928 6.365 11.636 C 6.267 11.528 6.216 11.381 6.225 11.231 C 5.513 10.924 4.802 10.61 4.095 10.29 C 4.018 10.424 3.906 10.532 3.773 10.599 L 4.178 12.212 C 4.453 12.209 4.712 12.35 4.869 12.589 C 5.007 12.799 5.051 13.062 4.988 13.309 C 5.45 13.584 5.909 13.851 6.376 14.12 C 6.618 13.833 7.011 13.755 7.334 13.929 Z M 3.497 10.672 C 3.308 10.685 3.122 10.616 2.98 10.481 C 2.688 10.766 2.395 11.053 2.103 11.344 C 2.251 11.618 2.247 11.956 2.091 12.225 C 2.597 12.821 3.104 13.423 3.621 14.012 C 4.133 14.595 4.656 15.166 5.173 15.737 C 4.915 15.102 4.656 14.47 4.404 13.839 C 4.157 13.869 3.91 13.779 3.733 13.594 C 3.556 13.409 3.467 13.15 3.491 12.887 C 3.507 12.719 3.576 12.562 3.688 12.441 C 3.748 12.375 3.819 12.321 3.896 12.28 C 3.762 11.744 3.627 11.214 3.497 10.671 Z M 5.45 15.661 C 5.45 15.661 5.45 15.661 5.45 15.661 C 5.449 15.661 5.449 15.661 5.448 15.661 Z M 5.944 15.75 L 6.411 15.149 C 6.226 14.948 6.159 14.656 6.236 14.387 C 5.775 14.12 5.314 13.851 4.854 13.578 C 4.791 13.641 4.752 13.696 4.674 13.738 C 4.931 14.381 5.19 15.019 5.45 15.661 C 5.619 15.636 5.792 15.667 5.944 15.75 Z M 12.843 8.45 C 12.235 7.647 11.629 6.842 11.015 6.039 C 10.683 6.248 10.255 6.152 10.031 5.818 C 8.985 6.45 7.951 7.087 6.911 7.73 C 6.916 7.766 6.922 7.807 6.922 7.845 C 6.921 7.903 6.911 7.961 6.893 8.016 C 7.642 8.605 8.395 9.201 9.143 9.79 C 9.682 9.461 10.369 9.636 10.707 10.19 C 11.376 9.838 12.04 9.487 12.702 9.136 C 12.648 8.897 12.7 8.645 12.843 8.451 Z M 11.415 2.884 C 11.376 2.77 11.336 2.656 11.295 2.544 C 11.214 2.538 11.135 2.511 11.066 2.467 C 10.926 2.386 10.836 2.235 10.826 2.067 C 10.826 2.038 10.826 2.002 10.83 1.966 C 10.346 1.686 9.869 1.407 9.385 1.132 C 8.923 0.872 8.456 0.621 7.991 0.364 C 7.907 0.446 7.809 0.51 7.703 0.555 C 7.883 1.448 8.059 2.348 8.232 3.241 C 8.51 3.242 8.763 3.413 8.879 3.681 C 9.65 3.544 10.413 3.413 11.179 3.288 C 11.195 3.11 11.263 2.972 11.415 2.884 Z M 11.684 15.47 L 11.882 15.482 C 12.282 14.977 12.675 14.463 13.069 13.946 C 12.907 13.733 12.88 13.438 13.001 13.196 L 10.751 11.445 C 10.615 11.716 10.389 11.923 10.116 12.028 Z M 8.935 3.978 C 8.935 4.05 8.923 4.116 8.902 4.181 C 9.295 4.413 9.689 4.646 10.082 4.884 C 10.262 4.673 10.54 4.589 10.797 4.67 C 10.977 4.354 11.161 4.039 11.342 3.723 L 11.246 3.585 C 10.476 3.712 9.706 3.842 8.936 3.978 Z M 14.654 10.516 C 14.654 10.516 14.654 10.516 14.654 10.517 C 14.654 10.517 14.654 10.517 14.654 10.517 Z M 13.783 9.582 C 13.477 9.817 13.049 9.745 12.826 9.422 C 12.168 9.772 11.505 10.124 10.836 10.469 C 10.905 10.684 10.914 10.915 10.865 11.136 C 11.634 11.744 12.405 12.346 13.181 12.946 C 13.354 12.791 13.591 12.702 13.816 12.773 C 14.12 12.196 14.418 11.618 14.716 11.035 C 14.649 10.94 14.604 10.867 14.609 10.718 C 14.609 10.648 14.626 10.577 14.654 10.517 C 14.366 10.202 14.075 9.891 13.783 9.582 Z M 16.077 8.081 C 15.487 7.908 14.896 7.73 14.3 7.558 C 14.23 7.687 14.096 7.763 13.956 7.753 L 13.771 8.295 C 14.086 8.537 14.176 8.993 13.979 9.348 C 14.271 9.66 14.558 9.974 14.844 10.285 C 14.937 10.23 15.046 10.213 15.15 10.237 C 15.497 9.635 15.84 9.035 16.184 8.421 C 16.123 8.318 16.086 8.202 16.076 8.081 Z M 11.224 5.824 C 11.842 6.634 12.456 7.437 13.063 8.254 C 13.197 8.178 13.352 8.153 13.501 8.183 L 13.687 7.642 C 13.512 7.474 13.495 7.152 13.659 6.973 C 13.735 6.884 13.843 6.835 13.956 6.837 L 14.3 5.802 C 14.064 5.616 13.924 5.283 14.006 4.984 C 13.378 4.575 12.748 4.17 12.112 3.77 C 11.982 3.913 11.769 3.948 11.589 3.894 L 11.062 4.813 C 11.359 5.052 11.43 5.495 11.224 5.824 Z" fill="rgb(197, 198, 198)" transform="translate(5.805 13.62) scale(0.773)"/>
  <g transform="translate(30 0) scale(1.00037)">
    <path d="M 0.915 32.418 L 0.915 26.956 L 11.703 26.956 C 11.977 26.96 12.247 26.892 12.488 26.758 C 12.72 26.624 12.916 26.433 13.056 26.202 C 13.351 25.728 13.351 25.124 13.056 24.65 C 12.918 24.417 12.722 24.225 12.488 24.092 C 12.249 23.954 11.978 23.884 11.703 23.888 L 7.77 23.888 C 6.316 23.888 4.998 23.646 3.817 23.157 C 2.674 22.698 1.698 21.892 1.023 20.85 C 0.339 19.797 0 18.427 0 16.744 C 0 15.441 0.312 14.258 0.935 13.192 C 1.559 12.123 2.445 11.235 3.507 10.616 C 4.6 9.962 5.848 9.623 7.116 9.635 L 17.911 9.635 L 17.911 15.14 L 8.166 15.14 C 7.784 15.13 7.413 15.274 7.136 15.542 C 6.869 15.793 6.72 16.147 6.725 16.517 C 6.715 16.908 6.863 17.287 7.136 17.565 C 7.408 17.842 7.78 17.995 8.166 17.986 L 12.013 17.986 C 13.639 17.986 15.044 18.234 16.224 18.719 C 17.407 19.209 18.324 19.985 18.975 21.049 C 19.635 22.113 19.965 23.49 19.965 25.179 C 19.977 26.464 19.634 27.726 18.975 28.823 C 18.332 29.907 17.431 30.808 16.355 31.445 C 15.264 32.094 14.035 32.418 12.669 32.418 Z M 34.465 32.418 C 31.93 32.418 29.698 31.938 27.773 30.976 C 25.854 30.014 24.363 28.682 23.296 26.978 C 22.233 25.276 21.705 23.3 21.705 21.049 C 21.705 18.565 22.212 16.435 23.23 14.656 C 24.2 12.935 25.615 11.515 27.322 10.55 C 29.024 9.583 30.91 9.099 32.975 9.099 C 35.336 9.099 37.311 9.605 38.895 10.616 C 40.465 11.601 41.718 13.028 42.503 14.723 C 43.317 16.455 43.726 18.433 43.726 20.652 C 43.726 21.034 43.702 21.486 43.655 22.007 C 43.626 22.414 43.576 22.82 43.504 23.222 L 28.826 23.222 C 29 23.996 29.332 24.647 29.827 25.177 C 30.326 25.709 30.953 26.103 31.708 26.356 C 32.465 26.609 33.31 26.736 34.242 26.736 L 41.106 26.736 L 41.106 32.418 Z M 28.653 18.919 L 37.174 18.919 C 37.113 18.455 37.024 17.995 36.908 17.542 C 36.8 17.117 36.614 16.717 36.359 16.362 C 36.12 16.027 35.834 15.729 35.511 15.477 C 35.173 15.215 34.795 15.012 34.392 14.876 C 33.935 14.724 33.456 14.65 32.975 14.656 C 32.308 14.656 31.71 14.777 31.182 15.015 C 30.682 15.233 30.235 15.558 29.871 15.968 C 29.524 16.362 29.255 16.824 29.064 17.345 C 28.877 17.862 28.74 18.386 28.653 18.919 Z M 46.389 32.418 L 46.389 0 L 53.158 0 L 53.158 32.418 Z M 68.014 32.952 C 65.708 32.952 63.638 32.434 61.806 31.4 C 60.007 30.396 58.505 28.923 57.455 27.132 C 56.392 25.328 55.864 23.3 55.864 21.049 C 55.864 18.77 56.394 16.733 57.455 14.943 C 58.513 13.161 60.013 11.692 61.806 10.682 C 63.64 9.628 65.708 9.101 68.014 9.101 C 70.313 9.101 72.372 9.628 74.193 10.682 C 75.974 11.697 77.463 13.165 78.513 14.943 C 79.58 16.734 80.111 18.77 80.111 21.049 C 80.111 23.3 79.58 25.328 78.513 27.132 C 77.467 28.922 75.968 30.396 74.171 31.4 C 72.338 32.434 70.284 32.952 68.014 32.952 Z M 68.014 26.956 C 69.089 26.956 70.018 26.691 70.808 26.157 C 71.596 25.626 72.23 24.89 72.644 24.027 C 73.08 23.14 73.3 22.131 73.3 21.004 C 73.3 19.912 73.08 18.92 72.644 18.031 C 72.228 17.169 71.594 16.434 70.807 15.901 C 70.018 15.365 69.089 15.095 68.014 15.095 C 66.932 15.095 65.992 15.365 65.191 15.901 C 64.396 16.429 63.756 17.165 63.339 18.031 C 62.894 18.956 62.67 19.975 62.684 21.004 C 62.684 22.131 62.903 23.14 63.339 24.027 C 63.775 24.916 64.393 25.627 65.191 26.159 C 65.992 26.691 66.932 26.956 68.014 26.956 Z M 82.863 32.418 L 82.863 19.32 C 82.863 17.423 83.313 15.704 84.217 14.167 C 85.119 12.625 86.408 11.395 88.085 10.476 C 89.759 9.559 91.747 9.099 94.048 9.099 C 96.376 9.099 98.362 9.559 100.003 10.476 C 101.649 11.395 102.909 12.625 103.783 14.167 C 104.658 15.704 105.094 17.423 105.094 19.32 L 105.094 32.418 L 98.325 32.418 L 98.325 19.495 C 98.325 18.695 98.134 17.964 97.757 17.3 C 97.384 16.64 96.851 16.088 96.207 15.696 C 95.542 15.293 94.779 15.085 94.004 15.095 C 93.158 15.095 92.408 15.298 91.748 15.696 C 90.433 16.496 89.629 17.939 89.633 19.495 L 89.633 32.418 Z M 117.894 32.952 C 115.914 32.952 114.166 32.434 112.65 31.4 C 111.137 30.36 109.958 28.961 109.113 27.197 C 108.268 25.437 107.848 23.445 107.848 21.225 C 107.848 18.917 108.339 16.852 109.33 15.03 C 110.315 13.219 111.776 11.721 113.55 10.703 C 115.369 9.635 117.518 9.099 119.997 9.099 C 122.498 9.099 124.628 9.628 126.392 10.681 C 128.12 11.697 129.528 13.19 130.453 14.986 C 131.403 16.809 131.879 18.842 131.879 21.091 L 131.879 32.418 L 125.237 32.418 L 125.237 28.779 L 125.057 28.779 C 124.647 29.577 124.115 30.303 123.48 30.931 C 122.812 31.585 122.017 32.092 121.146 32.418 C 120.23 32.771 119.144 32.952 117.892 32.952 Z M 119.903 27 C 120.924 27 121.819 26.742 122.589 26.224 C 123.359 25.707 123.951 24.991 124.36 24.072 C 124.778 23.105 124.987 22.059 124.973 21.004 C 124.986 19.979 124.777 18.964 124.36 18.031 C 123.977 17.174 123.363 16.443 122.589 15.923 C 121.819 15.402 120.924 15.14 119.903 15.14 C 118.854 15.14 117.938 15.4 117.151 15.923 C 116.37 16.439 115.75 17.17 115.365 18.031 C 114.948 18.964 114.738 19.979 114.753 21.004 C 114.753 22.131 114.955 23.155 115.365 24.072 C 115.772 24.991 116.368 25.709 117.151 26.224 C 117.939 26.742 118.854 27 119.901 27 Z M 68.296 12.743 C 71.479 12.743 74.06 15.303 74.06 18.46 C 74.06 21.618 71.479 24.178 68.296 24.178 C 65.112 24.178 62.532 21.618 62.532 18.46 C 62.532 15.303 65.112 12.743 68.296 12.743 Z" fill="rgb(44, 79, 125)"/>
  </g>
</svg>
