<svg viewBox="0 0 131.879 32.952" xmlns="http://www.w3.org/2000/svg" id="svg1937892676_5438"><g><path d="M 0.915 32.418 L 0.915 26.956 L 11.703 26.956 C 11.977 26.96 12.247 26.892 12.488 26.758 C 12.72 26.624 12.916 26.433 13.056 26.202 C 13.351 25.728 13.351 25.124 13.056 24.65 C 12.918 24.417 12.722 24.225 12.488 24.092 C 12.249 23.954 11.978 23.884 11.703 23.888 L 7.77 23.888 C 6.316 23.888 4.998 23.646 3.817 23.157 C 2.674 22.698 1.698 21.892 1.023 20.85 C 0.339 19.797 0 18.427 0 16.744 C 0 15.441 0.312 14.258 0.935 13.192 C 1.559 12.123 2.445 11.235 3.507 10.616 C 4.6 9.962 5.848 9.623 7.116 9.635 L 17.911 9.635 L 17.911 15.14 L 8.166 15.14 C 7.784 15.13 7.413 15.274 7.136 15.542 C 6.869 15.793 6.72 16.147 6.725 16.517 C 6.715 16.908 6.863 17.287 7.136 17.565 C 7.408 17.842 7.78 17.995 8.166 17.986 L 12.013 17.986 C 13.639 17.986 15.044 18.234 16.224 18.719 C 17.407 19.209 18.324 19.985 18.975 21.049 C 19.635 22.113 19.965 23.49 19.965 25.179 C 19.977 26.464 19.634 27.726 18.975 28.823 C 18.332 29.907 17.431 30.808 16.355 31.445 C 15.264 32.094 14.035 32.418 12.669 32.418 Z M 34.465 32.418 C 31.93 32.418 29.698 31.938 27.773 30.976 C 25.854 30.014 24.363 28.682 23.296 26.978 C 22.233 25.276 21.705 23.3 21.705 21.049 C 21.705 18.565 22.212 16.435 23.23 14.656 C 24.2 12.935 25.615 11.515 27.322 10.55 C 29.024 9.583 30.91 9.099 32.975 9.099 C 35.336 9.099 37.311 9.605 38.895 10.616 C 40.465 11.601 41.718 13.028 42.503 14.723 C 43.317 16.455 43.726 18.433 43.726 20.652 C 43.726 21.034 43.702 21.486 43.655 22.007 C 43.626 22.414 43.576 22.82 43.504 23.222 L 28.826 23.222 C 29 23.996 29.332 24.647 29.827 25.177 C 30.326 25.709 30.953 26.103 31.708 26.356 C 32.465 26.609 33.31 26.736 34.242 26.736 L 41.106 26.736 L 41.106 32.418 Z M 28.653 18.919 L 37.174 18.919 C 37.113 18.455 37.024 17.995 36.908 17.542 C 36.8 17.117 36.614 16.717 36.359 16.362 C 36.12 16.027 35.834 15.729 35.511 15.477 C 35.173 15.215 34.795 15.012 34.392 14.876 C 33.935 14.724 33.456 14.65 32.975 14.656 C 32.308 14.656 31.71 14.777 31.182 15.015 C 30.682 15.233 30.235 15.558 29.871 15.968 C 29.524 16.362 29.255 16.824 29.064 17.345 C 28.877 17.862 28.74 18.386 28.653 18.919 Z M 46.389 32.418 L 46.389 0 L 53.158 0 L 53.158 32.418 Z M 68.014 32.952 C 65.708 32.952 63.638 32.434 61.806 31.4 C 60.007 30.396 58.505 28.923 57.455 27.132 C 56.392 25.328 55.864 23.3 55.864 21.049 C 55.864 18.77 56.394 16.733 57.455 14.943 C 58.513 13.161 60.013 11.692 61.806 10.682 C 63.64 9.628 65.708 9.101 68.014 9.101 C 70.313 9.101 72.372 9.628 74.193 10.682 C 75.974 11.697 77.463 13.165 78.513 14.943 C 79.58 16.734 80.111 18.77 80.111 21.049 C 80.111 23.3 79.58 25.328 78.513 27.132 C 77.467 28.922 75.968 30.396 74.171 31.4 C 72.338 32.434 70.284 32.952 68.014 32.952 Z M 68.014 26.956 C 69.089 26.956 70.018 26.691 70.808 26.157 C 71.596 25.626 72.23 24.89 72.644 24.027 C 73.08 23.14 73.3 22.131 73.3 21.004 C 73.3 19.912 73.08 18.92 72.644 18.031 C 72.228 17.169 71.594 16.434 70.807 15.901 C 70.018 15.365 69.089 15.095 68.014 15.095 C 66.932 15.095 65.992 15.365 65.191 15.901 C 64.396 16.429 63.756 17.165 63.339 18.031 C 62.894 18.956 62.67 19.975 62.684 21.004 C 62.684 22.131 62.903 23.14 63.339 24.027 C 63.775 24.916 64.393 25.627 65.191 26.159 C 65.992 26.691 66.932 26.956 68.014 26.956 Z M 82.863 32.418 L 82.863 19.32 C 82.863 17.423 83.313 15.704 84.217 14.167 C 85.119 12.625 86.408 11.395 88.085 10.476 C 89.759 9.559 91.747 9.099 94.048 9.099 C 96.376 9.099 98.362 9.559 100.003 10.476 C 101.649 11.395 102.909 12.625 103.783 14.167 C 104.658 15.704 105.094 17.423 105.094 19.32 L 105.094 32.418 L 98.325 32.418 L 98.325 19.495 C 98.325 18.695 98.134 17.964 97.757 17.3 C 97.384 16.64 96.851 16.088 96.207 15.696 C 95.542 15.293 94.779 15.085 94.004 15.095 C 93.158 15.095 92.408 15.298 91.748 15.696 C 90.433 16.496 89.629 17.939 89.633 19.495 L 89.633 32.418 Z M 117.894 32.952 C 115.914 32.952 114.166 32.434 112.65 31.4 C 111.137 30.36 109.958 28.961 109.113 27.197 C 108.268 25.437 107.848 23.445 107.848 21.225 C 107.848 18.917 108.339 16.852 109.33 15.03 C 110.315 13.219 111.776 11.721 113.55 10.703 C 115.369 9.635 117.518 9.099 119.997 9.099 C 122.498 9.099 124.628 9.628 126.392 10.681 C 128.12 11.697 129.528 13.19 130.453 14.986 C 131.403 16.809 131.879 18.842 131.879 21.091 L 131.879 32.418 L 125.237 32.418 L 125.237 28.779 L 125.057 28.779 C 124.647 29.577 124.115 30.303 123.48 30.931 C 122.812 31.585 122.017 32.092 121.146 32.418 C 120.23 32.771 119.144 32.952 117.892 32.952 Z M 119.903 27 C 120.924 27 121.819 26.742 122.589 26.224 C 123.359 25.707 123.951 24.991 124.36 24.072 C 124.778 23.105 124.987 22.059 124.973 21.004 C 124.986 19.979 124.777 18.964 124.36 18.031 C 123.977 17.174 123.363 16.443 122.589 15.923 C 121.819 15.402 120.924 15.14 119.903 15.14 C 118.854 15.14 117.938 15.4 117.151 15.923 C 116.37 16.439 115.75 17.17 115.365 18.031 C 114.948 18.964 114.738 19.979 114.753 21.004 C 114.753 22.131 114.955 23.155 115.365 24.072 C 115.772 24.991 116.368 25.709 117.151 26.224 C 117.939 26.742 118.854 27 119.901 27 Z M 68.296 12.743 C 71.479 12.743 74.06 15.303 74.06 18.46 C 74.06 21.618 71.479 24.178 68.296 24.178 C 65.112 24.178 62.532 21.618 62.532 18.46 C 62.532 15.303 65.112 12.743 68.296 12.743 Z" fill="var(--token-fcf934da-9906-407f-b9ec-e839a53f74b6, rgb(44, 79, 125)) /* {&quot;name&quot;:&quot;dark blue&quot;} */"/></g></svg>